<svg version="1.1" viewBox="0 0 400 98" enable-background="new 0 0 400 98" xml:space="preserve">
<g>
	<path fill="var(--white, #FFFFFF)" d="M99.79,77.45c0,0.62-0.03,1.16-0.09,1.63c-0.06,0.46-0.16,0.87-0.31,1.22c-0.15,0.35-0.33,0.66-0.57,0.93
		c-0.23,0.27-0.64,0.6-1.22,0.99c-0.58,0.39-1.8,0.98-3.66,1.77c-1.86,0.79-4.17,1.57-6.93,2.32c-2.76,0.76-5.93,1.39-9.5,1.92
		c-3.57,0.52-7.48,0.78-11.72,0.78c-7.32,0-13.93-0.81-19.83-2.44c-5.9-1.63-10.92-4.03-15.08-7.21c-4.16-3.18-7.35-7.1-9.59-11.77
		c-2.24-4.67-3.36-10.04-3.36-16.12c0-6.24,1.21-11.8,3.62-16.68c2.41-4.88,5.8-9.02,10.15-12.41c4.36-3.39,9.57-5.97,15.64-7.76
		c6.07-1.78,12.8-2.67,20.18-2.67c3.25,0,6.42,0.2,9.5,0.61c3.08,0.41,5.93,0.92,8.54,1.54c2.62,0.62,4.94,1.34,6.97,2.15
		c2.03,0.81,3.44,1.48,4.23,2c0.78,0.52,1.29,0.92,1.53,1.19c0.23,0.27,0.42,0.59,0.57,0.96c0.14,0.37,0.26,0.8,0.35,1.31
		c0.09,0.5,0.13,1.1,0.13,1.8c0,0.78-0.06,1.43-0.18,1.98c-0.12,0.54-0.29,1-0.53,1.37s-0.51,0.64-0.83,0.81
		c-0.32,0.17-0.72,0.26-1.18,0.26c-0.82,0-1.96-0.38-3.42-1.13c-1.46-0.75-3.35-1.59-5.65-2.5c-2.31-0.91-5.11-1.74-8.41-2.5
		c-3.3-0.75-7.26-1.13-11.87-1.13c-5.03,0-9.6,0.67-13.71,2c-4.12,1.34-7.64,3.3-10.56,5.9c-2.92,2.6-5.18,5.76-6.79,9.5
		c-1.61,3.74-2.41,8.01-2.41,12.81c0,4.76,0.77,8.98,2.32,12.64c1.55,3.66,3.77,6.72,6.66,9.18c2.89,2.46,6.44,4.32,10.65,5.58
		c4.21,1.26,8.97,1.89,14.28,1.89c4.5,0,8.43-0.37,11.78-1.1c3.36-0.73,6.22-1.56,8.59-2.47s4.31-1.73,5.83-2.47
		c1.52-0.74,2.72-1.1,3.59-1.1c0.41,0,0.76,0.06,1.05,0.17s0.53,0.34,0.7,0.67c0.17,0.33,0.31,0.78,0.39,1.37
		C99.74,75.82,99.79,76.56,99.79,77.45z"/>
	<path fill="var(--white, #FFFFFF)" d="M147.21,73.96c0,2.11-0.41,4.05-1.23,5.83c-0.82,1.78-2.04,3.32-3.67,4.63c-1.63,1.31-3.65,2.33-6.09,3.06
		c-2.43,0.73-5.26,1.1-8.48,1.1c-3.11,0-5.82-0.33-8.15-0.98s-4.28-1.59-5.84-2.81c-1.57-1.22-2.74-2.7-3.52-4.44
		c-0.78-1.74-1.16-3.7-1.16-5.89c0-2.11,0.4-4.05,1.21-5.83c0.81-1.78,2.02-3.32,3.65-4.61s3.65-2.31,6.09-3.03
		c2.43-0.72,5.27-1.08,8.53-1.08c3.1,0,5.82,0.32,8.15,0.97s4.27,1.58,5.82,2.8c1.55,1.22,2.72,2.7,3.52,4.44
		C146.81,69.84,147.21,71.8,147.21,73.96z M141.67,74.29c0-1.5-0.22-2.94-0.66-4.31c-0.44-1.37-1.17-2.57-2.2-3.62
		c-1.03-1.04-2.4-1.88-4.13-2.49c-1.73-0.62-3.88-0.92-6.46-0.92c-2.37,0-4.42,0.28-6.15,0.85c-1.73,0.57-3.14,1.35-4.24,2.36
		s-1.91,2.19-2.44,3.56c-0.53,1.37-0.79,2.84-0.79,4.42c0,1.52,0.22,2.97,0.66,4.35s1.17,2.58,2.2,3.62
		c1.03,1.04,2.4,1.86,4.13,2.46c1.73,0.61,3.88,0.91,6.46,0.91c2.37,0,4.42-0.28,6.15-0.85c1.73-0.57,3.14-1.35,4.24-2.34
		s1.91-2.18,2.44-3.54C141.4,77.37,141.67,75.89,141.67,74.29z"/>
	<path fill="var(--white, #FFFFFF)" d="M164.17,87.5c0,0.12-0.04,0.22-0.13,0.32c-0.09,0.1-0.23,0.18-0.42,0.23c-0.19,0.06-0.45,0.11-0.79,0.15
		c-0.34,0.04-0.77,0.06-1.3,0.06c-0.5,0-0.92-0.02-1.25-0.06c-0.34-0.04-0.61-0.09-0.81-0.15c-0.21-0.06-0.34-0.14-0.42-0.23
		c-0.07-0.1-0.11-0.21-0.11-0.32V48.01c0-0.12,0.04-0.22,0.11-0.32c0.07-0.1,0.21-0.18,0.42-0.25c0.2-0.07,0.48-0.12,0.81-0.15
		c0.34-0.03,0.75-0.04,1.25-0.04c0.53,0,0.96,0.01,1.3,0.04c0.34,0.03,0.6,0.08,0.79,0.15c0.19,0.07,0.33,0.15,0.42,0.25
		c0.09,0.1,0.13,0.21,0.13,0.32V87.5z"/>
	<path fill="var(--white, #FFFFFF)" d="M184.03,87.5c0,0.12-0.04,0.22-0.13,0.32c-0.09,0.1-0.23,0.18-0.42,0.23c-0.19,0.06-0.45,0.11-0.79,0.15
		c-0.34,0.04-0.77,0.06-1.3,0.06c-0.5,0-0.92-0.02-1.25-0.06c-0.34-0.04-0.61-0.09-0.81-0.15c-0.21-0.06-0.34-0.14-0.42-0.23
		c-0.07-0.1-0.11-0.21-0.11-0.32V48.01c0-0.12,0.04-0.22,0.11-0.32c0.07-0.1,0.21-0.18,0.42-0.25c0.2-0.07,0.48-0.12,0.81-0.15
		c0.34-0.03,0.75-0.04,1.25-0.04c0.53,0,0.96,0.01,1.3,0.04c0.34,0.03,0.6,0.08,0.79,0.15c0.19,0.07,0.33,0.15,0.42,0.25
		c0.09,0.1,0.13,0.21,0.13,0.32V87.5z"/>
	<path fill="var(--white, #FFFFFF)" d="M231.1,72.88c0,0.7-0.28,1.19-0.83,1.45c-0.56,0.26-1.1,0.4-1.63,0.4h-27.11c0,1.64,0.24,3.12,0.73,4.45
		c0.48,1.33,1.28,2.47,2.4,3.41c1.11,0.95,2.56,1.67,4.35,2.18c1.79,0.51,3.98,0.76,6.59,0.76c1.85,0,3.5-0.11,4.97-0.32
		c1.46-0.21,2.73-0.45,3.8-0.72c1.07-0.26,1.95-0.5,2.64-0.72c0.69-0.21,1.18-0.32,1.47-0.32c0.18,0,0.34,0.03,0.48,0.09
		c0.15,0.06,0.26,0.15,0.35,0.28s0.15,0.29,0.2,0.48c0.04,0.2,0.07,0.44,0.07,0.73c0,0.14-0.02,0.27-0.04,0.4
		c-0.03,0.13-0.07,0.24-0.11,0.35s-0.11,0.21-0.2,0.31c-0.09,0.1-0.21,0.2-0.35,0.29c-0.15,0.1-0.6,0.27-1.36,0.51
		c-0.76,0.24-1.76,0.49-2.99,0.73s-2.66,0.46-4.28,0.66c-1.63,0.19-3.38,0.29-5.25,0.29c-3.08,0-5.8-0.31-8.17-0.92
		s-4.37-1.52-5.98-2.72c-1.61-1.2-2.83-2.69-3.67-4.47c-0.83-1.78-1.25-3.84-1.25-6.18c0-2.25,0.43-4.26,1.3-6.04
		c0.86-1.78,2.1-3.29,3.71-4.53c1.61-1.24,3.55-2.19,5.82-2.84c2.27-0.65,4.8-0.98,7.58-0.98c2.99,0,5.54,0.33,7.65,1
		c2.11,0.66,3.85,1.56,5.21,2.68s2.36,2.43,2.99,3.91c0.63,1.48,0.94,3.05,0.94,4.69V72.88z M225.69,71.85
		c0.09-2.81-0.88-5.01-2.9-6.59s-4.97-2.37-8.83-2.37c-1.99,0-3.74,0.25-5.25,0.75c-1.51,0.5-2.78,1.16-3.82,1.98
		c-1.04,0.82-1.84,1.77-2.4,2.86c-0.56,1.08-0.88,2.21-0.97,3.38H225.69z"/>
	<path fill="var(--white, #FFFFFF)" d="M249.55,63.33v16.03c0,2.01,0.43,3.54,1.3,4.6c0.86,1.05,2.44,1.58,4.72,1.58c0.7,0,1.34-0.05,1.91-0.15
		c0.57-0.1,1.08-0.21,1.52-0.32s0.81-0.22,1.12-0.32c0.31-0.1,0.58-0.15,0.81-0.15c0.15,0,0.28,0.02,0.4,0.06
		c0.12,0.04,0.21,0.11,0.29,0.22c0.07,0.11,0.13,0.24,0.18,0.41s0.07,0.38,0.07,0.63c0,0.41-0.05,0.74-0.15,1
		c-0.1,0.25-0.26,0.45-0.48,0.6s-0.54,0.28-0.97,0.41c-0.42,0.13-0.92,0.23-1.47,0.32c-0.56,0.09-1.14,0.16-1.76,0.21
		s-1.22,0.07-1.8,0.07c-1.96,0-3.63-0.18-5.01-0.53c-1.38-0.35-2.5-0.88-3.38-1.6s-1.52-1.62-1.91-2.71
		c-0.4-1.09-0.59-2.38-0.59-3.87V63.33h-5.93c-0.41,0-0.73-0.12-0.97-0.37c-0.23-0.24-0.35-0.61-0.35-1.1
		c0-0.25,0.03-0.47,0.09-0.66c0.06-0.19,0.15-0.34,0.26-0.47c0.12-0.13,0.26-0.22,0.42-0.28c0.16-0.06,0.34-0.09,0.55-0.09h5.93
		v-6.5c0-0.12,0.04-0.22,0.11-0.32c0.07-0.1,0.21-0.18,0.42-0.25c0.2-0.07,0.48-0.12,0.81-0.15c0.34-0.03,0.75-0.04,1.25-0.04
		c0.53,0,0.96,0.01,1.3,0.04c0.34,0.03,0.6,0.08,0.79,0.15c0.19,0.07,0.33,0.15,0.42,0.25c0.09,0.1,0.13,0.21,0.13,0.32v6.5h21.18
		v-7.71c0-0.12,0.04-0.22,0.11-0.32c0.07-0.1,0.21-0.18,0.42-0.23c0.2-0.06,0.48-0.11,0.81-0.15c0.34-0.04,0.75-0.06,1.25-0.06
		c0.53,0,0.96,0.02,1.3,0.06c0.34,0.04,0.6,0.09,0.79,0.15c0.19,0.06,0.33,0.14,0.42,0.23c0.09,0.1,0.13,0.21,0.13,0.32v7.71h25.49
		c0.64,0,1.09,0.11,1.34,0.34c0.25,0.22,0.37,0.53,0.37,0.92V87.5c0,0.12-0.04,0.22-0.13,0.32c-0.09,0.1-0.23,0.18-0.42,0.23
		c-0.19,0.06-0.45,0.11-0.79,0.15c-0.34,0.04-0.77,0.06-1.3,0.06c-0.5,0-0.92-0.02-1.25-0.06c-0.34-0.04-0.61-0.09-0.81-0.15
		c-0.21-0.06-0.34-0.14-0.42-0.23c-0.07-0.1-0.11-0.21-0.11-0.32V63.33h-21.97v16.03c0,2.01,0.43,3.54,1.3,4.6
		c0.86,1.05,2.42,1.58,4.68,1.58c0.7,0,1.34-0.05,1.91-0.15c0.57-0.1,1.08-0.21,1.52-0.32s0.82-0.22,1.14-0.32
		c0.32-0.1,0.6-0.15,0.83-0.15c0.15,0,0.27,0.02,0.37,0.06c0.1,0.04,0.19,0.11,0.26,0.22c0.07,0.11,0.13,0.24,0.18,0.41
		s0.07,0.38,0.07,0.63c0,0.41-0.04,0.74-0.13,1c-0.09,0.25-0.25,0.45-0.48,0.6c-0.23,0.15-0.56,0.28-0.97,0.41
		c-0.41,0.13-0.89,0.23-1.45,0.32c-0.56,0.09-1.14,0.16-1.76,0.21s-1.22,0.07-1.8,0.07c-1.99,0-3.68-0.18-5.05-0.53
		c-1.38-0.35-2.5-0.88-3.36-1.6c-0.86-0.71-1.49-1.62-1.89-2.71c-0.4-1.09-0.59-2.38-0.59-3.87V63.33H249.55z M303.96,52.05
		c0,0.94-0.25,1.57-0.75,1.9c-0.5,0.33-1.41,0.5-2.72,0.5c-1.29,0-2.18-0.16-2.66-0.48s-0.73-0.95-0.73-1.89s0.25-1.57,0.75-1.9
		c0.5-0.33,1.41-0.5,2.72-0.5c1.29,0,2.18,0.16,2.66,0.48S303.96,51.11,303.96,52.05z"/>
	<path fill="var(--white, #FFFFFF)" d="M348.25,60.93c0,0.06-0.01,0.12-0.02,0.19c-0.02,0.07-0.03,0.13-0.04,0.19c-0.02,0.06-0.04,0.12-0.07,0.19
		c-0.03,0.07-0.06,0.13-0.09,0.19L333.62,87.5c-0.09,0.16-0.22,0.28-0.4,0.38c-0.18,0.1-0.4,0.18-0.66,0.23s-0.58,0.1-0.94,0.12
		c-0.37,0.02-0.8,0.03-1.3,0.03c-0.5,0-0.94-0.01-1.32-0.04c-0.38-0.03-0.7-0.07-0.97-0.13s-0.48-0.14-0.66-0.23
		c-0.18-0.1-0.31-0.21-0.4-0.35l-14.41-25.81c-0.09-0.16-0.15-0.28-0.2-0.38c-0.04-0.1-0.07-0.18-0.09-0.23
		c-0.02-0.06-0.02-0.11-0.02-0.15c0-0.14,0.04-0.25,0.13-0.35c0.09-0.1,0.23-0.17,0.42-0.22c0.19-0.05,0.45-0.08,0.77-0.1
		c0.32-0.02,0.72-0.03,1.19-0.03c0.64,0,1.16,0.01,1.54,0.04c0.38,0.03,0.68,0.07,0.9,0.13s0.38,0.14,0.48,0.23
		c0.1,0.1,0.2,0.22,0.29,0.35l12.44,23.14l0.09,0.15l0.09-0.15l12.22-23.14c0.06-0.14,0.15-0.25,0.26-0.35
		c0.12-0.1,0.29-0.18,0.51-0.23s0.51-0.1,0.88-0.13c0.37-0.03,0.84-0.04,1.43-0.04c0.47,0,0.86,0.01,1.16,0.03
		c0.31,0.02,0.55,0.06,0.73,0.12s0.3,0.13,0.37,0.22C348.22,60.68,348.25,60.79,348.25,60.93z"/>
	<path fill="var(--white, #FFFFFF)" d="M383.94,87.5c0,0.2-0.1,0.35-0.29,0.45c-0.19,0.11-0.44,0.19-0.75,0.23s-0.73,0.07-1.25,0.07
		c-0.5,0-0.92-0.02-1.27-0.07s-0.62-0.13-0.81-0.23c-0.19-0.11-0.29-0.26-0.29-0.45v-2.96c-1.79,1.29-3.76,2.29-5.91,2.99
		s-4.39,1.05-6.7,1.05c-2.08,0-3.95-0.18-5.6-0.54c-1.66-0.36-3.05-0.88-4.2-1.55s-2.02-1.49-2.64-2.45
		c-0.62-0.96-0.92-2.03-0.92-3.22c0-1.46,0.45-2.74,1.36-3.82c0.91-1.08,2.2-1.99,3.87-2.71c1.67-0.72,3.68-1.26,6.02-1.63
		c2.34-0.36,4.95-0.54,7.82-0.54h6.33v-2.29c0-1.13-0.18-2.13-0.53-3s-0.92-1.6-1.71-2.18s-1.82-1.03-3.08-1.32
		c-1.26-0.29-2.8-0.44-4.61-0.44c-1.76,0-3.34,0.14-4.75,0.42s-2.64,0.6-3.69,0.95s-1.93,0.67-2.61,0.95
		c-0.69,0.28-1.18,0.42-1.47,0.42c-0.18,0-0.34-0.02-0.48-0.06c-0.15-0.04-0.27-0.11-0.37-0.22c-0.1-0.11-0.18-0.24-0.22-0.41
		s-0.07-0.37-0.07-0.6c0-0.41,0.04-0.74,0.13-0.98s0.31-0.49,0.68-0.73c0.37-0.24,1.02-0.53,1.96-0.86
		c0.94-0.33,2.01-0.64,3.23-0.92c1.22-0.28,2.53-0.51,3.93-0.69s2.81-0.26,4.22-0.26c2.72,0,5.02,0.22,6.9,0.66
		c1.87,0.44,3.39,1.07,4.55,1.89c1.16,0.82,1.98,1.83,2.48,3.03c0.5,1.2,0.75,2.56,0.75,4.09V87.5z M378.71,74.99h-7.25
		c-2.11,0-3.96,0.13-5.54,0.38c-1.58,0.25-2.9,0.63-3.96,1.11c-1.05,0.49-1.84,1.07-2.35,1.76c-0.51,0.68-0.77,1.46-0.77,2.34
		c0,1.52,0.73,2.74,2.18,3.65s3.49,1.36,6.13,1.36c2.08,0,4.02-0.36,5.82-1.07s3.71-1.81,5.73-3.3V74.99z"/>
</g>
<g>
	<path fill="var(--yellow, #CC9900)" d="M188.44,41.5c-0.04,0.12-0.11,0.22-0.24,0.32c-0.12,0.1-0.32,0.18-0.58,0.23s-0.61,0.11-1.03,0.15
		c-0.42,0.04-0.93,0.06-1.53,0.06c-0.63,0-1.14-0.02-1.53-0.06c-0.39-0.04-0.69-0.09-0.9-0.15s-0.35-0.14-0.42-0.23
		c-0.07-0.1-0.07-0.21,0-0.32l5.96-16.64c0.18-0.62,0.33-1.21,0.47-1.76c0.14-0.55,0.21-1.08,0.21-1.61c0-1.45-0.5-2.58-1.5-3.41
		c-1-0.83-2.72-1.25-5.14-1.25c-2,0-4.04,0.32-6.12,0.97c-2.07,0.64-4.03,1.54-5.88,2.68s-3.48,2.5-4.9,4.09s-2.47,3.31-3.14,5.19
		l-4.22,11.75c-0.07,0.12-0.17,0.22-0.29,0.32c-0.12,0.1-0.32,0.18-0.58,0.23s-0.61,0.11-1.03,0.15c-0.42,0.04-0.93,0.06-1.53,0.06
		c-0.6,0-1.09-0.02-1.48-0.06c-0.39-0.04-0.69-0.09-0.9-0.15s-0.35-0.14-0.42-0.23c-0.07-0.1-0.09-0.21-0.05-0.32l5.96-16.64
		c0.28-0.64,0.47-1.27,0.55-1.89c0.09-0.62,0.13-1.18,0.13-1.68c0-1.37-0.51-2.45-1.53-3.25c-1.02-0.8-2.73-1.2-5.12-1.2
		c-2,0-4.04,0.32-6.12,0.97c-2.07,0.64-4.03,1.54-5.88,2.68s-3.48,2.5-4.9,4.09s-2.47,3.31-3.14,5.19l-4.17,11.75
		c-0.07,0.12-0.17,0.22-0.29,0.32c-0.12,0.1-0.32,0.18-0.58,0.23s-0.61,0.11-1.03,0.15c-0.42,0.04-0.93,0.06-1.53,0.06
		c-0.63,0-1.14-0.02-1.53-0.06c-0.39-0.04-0.69-0.09-0.9-0.15s-0.35-0.14-0.42-0.23c-0.07-0.1-0.07-0.21,0-0.32l9.6-26.51
		c0.03-0.12,0.11-0.22,0.24-0.32c0.12-0.1,0.31-0.18,0.55-0.25c0.25-0.07,0.56-0.12,0.95-0.15c0.39-0.03,0.84-0.04,1.37-0.04
		s0.97,0.01,1.32,0.04c0.35,0.03,0.62,0.08,0.82,0.15c0.19,0.07,0.32,0.15,0.37,0.25c0.05,0.1,0.06,0.21,0.03,0.32l-1.95,5.42
		c0.46-0.64,1.28-1.35,2.48-2.11c1.19-0.76,2.61-1.47,4.25-2.12c1.63-0.65,3.44-1.2,5.41-1.63c1.97-0.43,3.96-0.64,5.96-0.64
		c2.18,0,4.02,0.16,5.54,0.48c1.51,0.32,2.75,0.77,3.72,1.35c0.97,0.58,1.67,1.26,2.11,2.05c0.44,0.79,0.69,1.67,0.76,2.62
		c0.63-0.66,1.56-1.38,2.79-2.14c1.23-0.76,2.66-1.46,4.3-2.11s3.42-1.18,5.35-1.61c1.93-0.43,3.9-0.64,5.91-0.64
		c2.28,0,4.2,0.18,5.75,0.54c1.55,0.36,2.79,0.85,3.74,1.48c0.95,0.63,1.63,1.36,2.03,2.2c0.4,0.84,0.61,1.75,0.61,2.72
		c0,0.68-0.06,1.35-0.18,2.01c-0.12,0.65-0.31,1.32-0.55,2.01L188.44,41.5z"/>
	<path fill="var(--yellow, #CC9900)" d="M249.3,20.2c0,1.31-0.55,2.49-1.66,3.53c-1.11,1.04-2.86,1.94-5.25,2.68c-2.39,0.74-5.45,1.31-9.18,1.71
		c-3.73,0.4-8.21,0.6-13.45,0.6h-6.06c-0.25,0.74-0.42,1.46-0.53,2.17s-0.16,1.36-0.16,1.96c0,2.15,0.94,3.81,2.82,4.98
		c1.88,1.17,4.95,1.76,9.2,1.76c2.21,0,4.2-0.09,5.96-0.28c1.76-0.19,3.28-0.39,4.56-0.6c1.28-0.21,2.32-0.41,3.11-0.6
		c0.79-0.19,1.33-0.28,1.61-0.28c0.28,0,0.48,0.06,0.61,0.19c0.12,0.13,0.18,0.29,0.18,0.48c0,0.12-0.03,0.27-0.08,0.45
		c-0.05,0.19-0.13,0.38-0.24,0.59s-0.25,0.41-0.42,0.62c-0.18,0.21-0.39,0.38-0.63,0.51c-0.42,0.23-1.15,0.46-2.19,0.69
		c-1.04,0.22-2.26,0.42-3.67,0.6c-1.41,0.18-2.94,0.32-4.59,0.44c-1.65,0.12-3.29,0.18-4.9,0.18c-3.02,0-5.66-0.2-7.91-0.6
		c-2.25-0.4-4.12-1-5.62-1.8c-1.49-0.8-2.61-1.8-3.35-3s-1.11-2.6-1.11-4.2c0-1.25,0.22-2.59,0.66-4.03
		c0.44-1.44,1.12-2.86,2.06-4.28c0.93-1.42,2.14-2.77,3.61-4.07c1.48-1.3,3.23-2.44,5.27-3.43c2.04-0.99,4.39-1.78,7.07-2.37
		c2.67-0.6,5.68-0.89,9.02-0.89c2.78,0,5.13,0.2,7.07,0.6c1.93,0.4,3.51,0.91,4.72,1.52s2.09,1.29,2.64,2.04
		C249.03,18.8,249.3,19.52,249.3,20.2z M242.65,20.58c0-1.11-0.79-2.01-2.37-2.68s-3.81-1.01-6.7-1.01c-2.53,0-4.79,0.24-6.78,0.73
		c-1.99,0.49-3.74,1.14-5.25,1.96c-1.51,0.82-2.8,1.77-3.88,2.86c-1.07,1.08-1.94,2.22-2.61,3.41h5.85c4.22,0,7.72-0.14,10.49-0.42
		c2.78-0.28,5-0.67,6.67-1.16c1.67-0.49,2.85-1.05,3.53-1.68C242.31,21.95,242.65,21.28,242.65,20.58z"/>
	<path fill="var(--yellow, #CC9900)" d="M300.71,20.84c0,0.68-0.07,1.35-0.21,2.01c-0.14,0.65-0.33,1.32-0.58,2.01l-5.96,16.64
		c-0.07,0.12-0.17,0.22-0.29,0.32c-0.12,0.1-0.32,0.18-0.58,0.23s-0.6,0.11-1,0.15c-0.4,0.04-0.92,0.06-1.56,0.06
		c-0.6,0-1.09-0.02-1.48-0.06c-0.39-0.04-0.69-0.09-0.9-0.15s-0.35-0.14-0.42-0.23c-0.07-0.1-0.09-0.21-0.05-0.32l6.01-16.64
		c0.25-0.68,0.42-1.33,0.53-1.93c0.11-0.6,0.16-1.13,0.16-1.58c0-1.37-0.53-2.46-1.58-3.28s-2.81-1.23-5.27-1.23
		c-2.11,0-4.24,0.32-6.38,0.97c-2.15,0.64-4.14,1.54-5.99,2.68s-3.49,2.5-4.93,4.09c-1.44,1.58-2.5,3.31-3.16,5.19L262.9,41.5
		c-0.07,0.12-0.17,0.22-0.29,0.32c-0.12,0.1-0.32,0.18-0.58,0.23s-0.61,0.11-1.03,0.15c-0.42,0.04-0.93,0.06-1.53,0.06
		c-0.63,0-1.14-0.02-1.53-0.06c-0.39-0.04-0.69-0.09-0.9-0.15s-0.35-0.14-0.42-0.23c-0.07-0.1-0.07-0.21,0-0.32l9.6-26.51
		c0.03-0.12,0.11-0.22,0.24-0.32c0.12-0.1,0.31-0.18,0.55-0.25c0.25-0.07,0.56-0.12,0.95-0.15c0.39-0.03,0.84-0.04,1.37-0.04
		s0.97,0.01,1.32,0.04c0.35,0.03,0.62,0.08,0.82,0.15c0.19,0.07,0.32,0.15,0.37,0.25c0.05,0.1,0.06,0.21,0.03,0.32l-1.95,5.42
		c0.46-0.64,1.27-1.35,2.45-2.11c1.18-0.76,2.6-1.47,4.27-2.12c1.67-0.65,3.52-1.2,5.56-1.63c2.04-0.43,4.17-0.64,6.38-0.64
		c2.28,0,4.2,0.2,5.75,0.59c1.55,0.39,2.79,0.91,3.74,1.55s1.63,1.38,2.03,2.21C300.51,19.08,300.71,19.95,300.71,20.84z"/>
	<path fill="var(--yellow, #CC9900)" d="M342.69,15.31c0,0.16-0.02,0.31-0.05,0.47c-0.04,0.16-0.1,0.31-0.18,0.45c-0.09,0.15-0.2,0.29-0.34,0.42
		c-0.14,0.14-0.29,0.25-0.45,0.35c-0.16,0.1-0.34,0.18-0.55,0.23s-0.44,0.09-0.69,0.09h-13.18l-5.8,16.03
		c-0.14,0.45-0.27,0.96-0.4,1.54c-0.12,0.58-0.18,1.05-0.18,1.42c0,1.11,0.4,1.93,1.19,2.45c0.79,0.52,2.12,0.78,3.98,0.78
		c0.98,0,1.85-0.05,2.61-0.15c0.76-0.1,1.41-0.21,1.98-0.32c0.56-0.12,1.05-0.22,1.45-0.32c0.4-0.1,0.75-0.15,1.03-0.15
		c0.28,0,0.5,0.05,0.66,0.15c0.16,0.1,0.24,0.27,0.24,0.53c0,0.2-0.04,0.4-0.11,0.62c-0.07,0.22-0.16,0.42-0.26,0.63
		s-0.24,0.39-0.4,0.56c-0.16,0.17-0.34,0.31-0.55,0.42c-0.25,0.14-0.63,0.26-1.16,0.38s-1.13,0.22-1.82,0.32
		c-0.69,0.1-1.4,0.18-2.14,0.23s-1.44,0.09-2.11,0.09c-1.9,0-3.53-0.11-4.9-0.34s-2.51-0.58-3.43-1.05
		c-0.91-0.48-1.59-1.08-2.03-1.8c-0.44-0.72-0.66-1.58-0.66-2.58c0-0.23,0.02-0.49,0.05-0.78c0.03-0.28,0.1-0.58,0.18-0.88
		c0.09-0.3,0.18-0.61,0.26-0.92c0.09-0.31,0.18-0.6,0.29-0.88l5.75-15.97h-7.12c-0.35,0-0.62-0.05-0.82-0.16
		c-0.19-0.11-0.29-0.33-0.29-0.66c0-0.25,0.03-0.51,0.11-0.76c0.07-0.25,0.19-0.48,0.37-0.69c0.18-0.21,0.4-0.37,0.69-0.5
		c0.28-0.13,0.61-0.19,1-0.19h7.12l2.37-6.5c0.03-0.12,0.12-0.22,0.26-0.32c0.14-0.1,0.34-0.18,0.61-0.25c0.26-0.07,0.6-0.12,1-0.15
		c0.4-0.03,0.92-0.04,1.56-0.04c0.6,0,1.09,0.01,1.48,0.04c0.39,0.03,0.69,0.08,0.9,0.15c0.21,0.07,0.34,0.15,0.4,0.25
		c0.05,0.1,0.06,0.21,0.03,0.32l-2.32,6.5h13.18c0.49,0,0.82,0.11,0.98,0.32C342.61,14.91,342.69,15.11,342.69,15.31z"/>
	<path fill="var(--yellow, #CC9900)" d="M387.88,20.2c0,1.31-0.55,2.49-1.66,3.53c-1.11,1.04-2.86,1.94-5.25,2.68c-2.39,0.74-5.45,1.31-9.18,1.71
		c-3.73,0.4-8.21,0.6-13.45,0.6h-6.06c-0.25,0.74-0.42,1.46-0.53,2.17s-0.16,1.36-0.16,1.96c0,2.15,0.94,3.81,2.82,4.98
		c1.88,1.17,4.95,1.76,9.2,1.76c2.21,0,4.2-0.09,5.96-0.28c1.76-0.19,3.28-0.39,4.56-0.6c1.28-0.21,2.32-0.41,3.11-0.6
		c0.79-0.19,1.33-0.28,1.61-0.28c0.28,0,0.48,0.06,0.61,0.19c0.12,0.13,0.18,0.29,0.18,0.48c0,0.12-0.03,0.27-0.08,0.45
		c-0.05,0.19-0.13,0.38-0.24,0.59s-0.25,0.41-0.42,0.62c-0.18,0.21-0.39,0.38-0.63,0.51c-0.42,0.23-1.15,0.46-2.19,0.69
		c-1.04,0.22-2.26,0.42-3.67,0.6c-1.41,0.18-2.94,0.32-4.59,0.44c-1.65,0.12-3.29,0.18-4.9,0.18c-3.02,0-5.66-0.2-7.91-0.6
		c-2.25-0.4-4.12-1-5.62-1.8c-1.49-0.8-2.61-1.8-3.35-3s-1.11-2.6-1.11-4.2c0-1.25,0.22-2.59,0.66-4.03
		c0.44-1.44,1.12-2.86,2.06-4.28c0.93-1.42,2.14-2.77,3.61-4.07c1.48-1.3,3.23-2.44,5.27-3.43c2.04-0.99,4.39-1.78,7.07-2.37
		c2.67-0.6,5.68-0.89,9.02-0.89c2.78,0,5.13,0.2,7.07,0.6c1.93,0.4,3.51,0.91,4.72,1.52s2.09,1.29,2.64,2.04
		C387.61,18.8,387.88,19.52,387.88,20.2z M381.24,20.58c0-1.11-0.79-2.01-2.37-2.68s-3.81-1.01-6.7-1.01
		c-2.53,0-4.79,0.24-6.78,0.73c-1.99,0.49-3.74,1.14-5.25,1.96c-1.51,0.82-2.8,1.77-3.88,2.86c-1.07,1.08-1.94,2.22-2.61,3.41h5.85
		c4.22,0,7.72-0.14,10.49-0.42c2.78-0.28,5-0.67,6.67-1.16c1.67-0.49,2.85-1.05,3.53-1.68C380.9,21.95,381.24,21.28,381.24,20.58z"
		/>
</g>
</svg>
