<?xml version="1.0" encoding="UTF-8"?><svg id="Layer_1" xmlns="http://www.w3.org/2000/svg" viewBox="0 0 621.41 134.28"><path d="m105.3,76c0,3.52-1.36,6.66-4.07,9.41-2.71,2.75-6.48,5.08-11.29,7-4.82,1.92-10.49,3.36-17,4.33-6.52.97-13.54,1.45-21.07,1.45-5.26,0-10.14-.21-14.63-.64-4.49-.43-8.5-.95-12.02-1.57-3.52-.62-6.48-1.26-8.87-1.92-2.39-.66-4.05-1.22-4.98-1.69-.93-.46-1.62-1.05-2.06-1.77-.45-.72-.67-1.68-.67-2.88,0-.85.08-1.56.24-2.12.16-.56.4-1.02.73-1.37.32-.35.73-.59,1.21-.73s1.05-.2,1.7-.2c1.13,0,2.73.33,4.8.99,2.06.66,4.72,1.38,7.96,2.15,3.24.77,7.14,1.5,11.72,2.18,4.57.68,9.86,1.02,15.85,1.02,4.53,0,8.68-.29,12.45-.87,3.77-.58,7-1.4,9.72-2.47,2.71-1.07,4.8-2.37,6.25-3.92,1.46-1.55,2.19-3.31,2.19-5.29,0-2.13-1.01-3.95-3.04-5.46-2.02-1.51-4.7-2.84-8.02-3.98-3.32-1.14-7.1-2.19-11.36-3.14-4.25-.95-8.6-1.92-13.06-2.91-4.45-.99-8.79-2.08-13-3.28-4.21-1.2-7.98-2.61-11.29-4.24-3.32-1.63-6.01-3.53-8.08-5.72-2.06-2.19-3.1-4.81-3.1-7.87s1.19-5.94,3.58-8.4c2.39-2.46,5.71-4.52,9.96-6.19,4.25-1.67,9.31-2.93,15.18-3.81,5.87-.87,12.21-1.31,19.01-1.31,3.48,0,6.98.15,10.51.44,3.52.29,6.84.68,9.96,1.16,3.12.48,5.89,1.03,8.32,1.63,2.43.6,4.03,1.08,4.8,1.45.77.37,1.27.66,1.52.87.24.21.44.48.61.81.16.33.28.73.36,1.19.08.46.12,1.07.12,1.8,0,.7-.06,1.32-.18,1.86-.12.54-.3,1-.55,1.37-.24.37-.59.64-1.03.81-.45.17-.95.26-1.52.26-.89,0-2.29-.27-4.19-.81-1.9-.54-4.23-1.15-6.98-1.83-2.75-.68-6.01-1.3-9.78-1.86-3.77-.56-8-.84-12.69-.84-4.37,0-8.18.28-11.42.84-3.24.56-5.91,1.31-8.02,2.24-2.11.93-3.69,2.03-4.74,3.31-1.05,1.28-1.58,2.63-1.58,4.07,0,2.09,1.01,3.89,3.04,5.4,2.02,1.51,4.72,2.85,8.08,4.01,3.36,1.16,7.18,2.23,11.48,3.2,4.29.97,8.66,1.95,13.12,2.93,4.45.99,8.82,2.07,13.12,3.25,4.29,1.18,8.12,2.58,11.48,4.18,3.36,1.61,6.07,3.51,8.14,5.69,2.06,2.19,3.1,4.77,3.1,7.76Z" fill="#fff"/><path d="m173.56,82.97c0,2.11-.57,4.05-1.71,5.83-1.14,1.78-2.85,3.32-5.11,4.63s-5.09,2.33-8.48,3.06c-3.39.73-7.33,1.1-11.82,1.1s-8.11-.33-11.36-.98-5.96-1.59-8.14-2.81c-2.18-1.22-3.82-2.7-4.9-4.44-1.08-1.74-1.62-3.7-1.62-5.89s.56-4.05,1.68-5.83c1.12-1.78,2.82-3.32,5.08-4.61s5.09-2.31,8.48-3.03c3.39-.72,7.35-1.08,11.88-1.08s8.11.32,11.36.97c3.25.64,5.95,1.58,8.11,2.8,2.16,1.22,3.8,2.7,4.9,4.44,1.1,1.74,1.65,3.69,1.65,5.86Zm-7.72.32c0-1.5-.31-2.94-.92-4.31-.61-1.37-1.63-2.57-3.06-3.62-1.43-1.04-3.35-1.88-5.76-2.49-2.41-.62-5.41-.92-9-.92-3.31,0-6.16.28-8.57.85-2.41.57-4.38,1.35-5.91,2.36-1.53,1.01-2.66,2.19-3.4,3.56s-1.1,2.84-1.1,4.42.31,2.97.92,4.35,1.63,2.58,3.06,3.62c1.43,1.04,3.35,1.86,5.76,2.46,2.41.61,5.41.91,9,.91,3.31,0,6.16-.28,8.57-.85,2.41-.57,4.38-1.35,5.91-2.34s2.66-2.18,3.4-3.54,1.1-2.85,1.1-4.45Z" fill="#fff"/><path d="m228.61,92.58c0,.23-.02.44-.06.63-.04.19-.1.35-.18.48-.08.14-.19.26-.34.37-.14.11-.48.29-1.01.54-.53.25-1.42.58-2.66.97-1.25.39-2.64.73-4.19,1.03-1.55.29-3.23.53-5.02.72-1.8.19-3.65.28-5.57.28-3.84,0-7.24-.31-10.2-.92-2.96-.62-5.44-1.52-7.44-2.72-2-1.2-3.52-2.68-4.56-4.42s-1.56-3.76-1.56-6.05c0-2.58.64-4.79,1.93-6.62,1.29-1.84,3.05-3.34,5.3-4.51,2.24-1.17,4.87-2.04,7.87-2.59s6.22-.83,9.64-.83c1.84,0,3.59.08,5.27.25,1.67.17,3.21.39,4.62.66,1.41.27,2.66.59,3.77.94,1.1.35,1.91.65,2.42.89.51.24.86.43,1.04.56s.33.27.43.42c.1.16.17.33.21.51.04.19.06.41.06.66,0,.57-.17.96-.52,1.19-.35.22-.73.34-1.13.34-.57,0-1.28-.18-2.11-.53-.84-.35-1.91-.74-3.21-1.16-1.31-.42-2.89-.81-4.75-1.16-1.86-.35-4.07-.53-6.64-.53-5.31,0-9.4.98-12.28,2.93-2.88,1.95-4.32,4.78-4.32,8.47,0,1.86.39,3.48,1.16,4.88.77,1.4,1.89,2.56,3.34,3.49,1.45.93,3.21,1.62,5.3,2.08s4.43.69,7.04.69c2.45,0,4.61-.19,6.49-.56,1.88-.37,3.51-.78,4.9-1.23,1.39-.45,2.54-.86,3.46-1.23s1.6-.56,2.05-.56c.25,0,.46.03.64.1s.34.18.46.32c.12.15.21.32.28.53s.09.44.09.72Z" fill="#fff"/><path d="m251.64,61.06c0,.94-.35,1.57-1.04,1.9-.69.33-1.96.5-3.8.5s-3.03-.16-3.7-.48c-.67-.32-1.01-.95-1.01-1.89s.35-1.57,1.04-1.9c.69-.33,1.96-.5,3.8-.5s3.03.16,3.71.48c.67.32,1.01.95,1.01,1.89Zm-1.1,35.45c0,.12-.06.22-.18.32s-.32.18-.58.23c-.27.06-.63.11-1.1.15-.47.04-1.07.06-1.81.06-.69,0-1.28-.02-1.75-.06-.47-.04-.85-.09-1.13-.15-.29-.06-.48-.14-.58-.23-.1-.1-.15-.21-.15-.32v-26.51c0-.12.05-.22.15-.32.1-.1.3-.18.58-.25.29-.07.66-.12,1.13-.15.47-.03,1.05-.04,1.75-.04.73,0,1.34.01,1.81.04.47.03.84.08,1.1.15.27.07.46.15.58.25s.18.21.18.32v26.51Z" fill="#fff"/><path d="m309.75,96.51c0,.2-.13.35-.4.45-.27.11-.61.19-1.04.23s-1.01.07-1.75.07c-.69,0-1.29-.02-1.78-.07-.49-.05-.87-.13-1.13-.23-.27-.11-.4-.26-.4-.45v-2.96c-2.49,1.29-5.24,2.29-8.24,2.99s-6.11,1.05-9.34,1.05c-2.9,0-5.5-.18-7.81-.54-2.31-.36-4.26-.88-5.85-1.55s-2.82-1.49-3.67-2.45c-.86-.96-1.29-2.03-1.29-3.22,0-1.46.63-2.74,1.9-3.82,1.27-1.08,3.06-1.99,5.39-2.71,2.33-.72,5.12-1.26,8.39-1.63,3.27-.36,6.9-.54,10.9-.54h8.82v-2.29c0-1.13-.25-2.13-.73-3s-1.29-1.6-2.39-2.18-2.53-1.03-4.29-1.32c-1.76-.29-3.9-.44-6.43-.44s-4.65.14-6.61.42-3.67.6-5.14.95c-1.47.35-2.68.67-3.64.95-.96.28-1.64.42-2.05.42-.24,0-.47-.02-.67-.06-.21-.04-.38-.11-.52-.22-.14-.11-.25-.24-.31-.41-.06-.17-.09-.37-.09-.6,0-.41.06-.74.18-.98s.44-.49.95-.73c.51-.24,1.42-.53,2.72-.86,1.31-.33,2.81-.64,4.5-.92,1.69-.28,3.52-.51,5.48-.69s3.92-.26,5.88-.26c3.8,0,7,.22,9.61.66,2.61.44,4.72,1.07,6.34,1.89,1.61.82,2.77,1.83,3.46,3.03.69,1.2,1.04,2.56,1.04,4.09v17.93Zm-7.29-12.51h-10.1c-2.94,0-5.51.13-7.72.38-2.2.25-4.04.62-5.51,1.11-1.47.49-2.56,1.07-3.28,1.76-.71.68-1.07,1.46-1.07,2.34,0,1.52,1.01,2.74,3.03,3.65,2.02.91,4.87,1.36,8.54,1.36,2.9,0,5.6-.36,8.11-1.07s5.17-1.81,7.99-3.3v-6.24Z" fill="#fff"/><path d="m337.24,96.51c0,.12-.06.22-.18.32s-.32.18-.58.23c-.27.06-.63.11-1.1.15-.47.04-1.07.06-1.81.06-.69,0-1.28-.02-1.75-.06-.47-.04-.85-.09-1.13-.15-.29-.06-.48-.14-.58-.23-.1-.1-.15-.21-.15-.32v-39.49c0-.12.05-.22.15-.32.1-.1.3-.18.58-.25.29-.07.66-.12,1.13-.15.47-.03,1.05-.04,1.75-.04.73,0,1.34.01,1.81.04.47.03.84.08,1.1.15.27.07.46.15.58.25.12.1.18.21.18.32v39.49Z" fill="#fff"/><path d="m418.75,96.98c-.04.12-.11.22-.24.32-.12.1-.32.18-.58.23s-.61.11-1.03.15-.93.06-1.53.06c-.63,0-1.14-.02-1.53-.06-.39-.04-.69-.09-.9-.15s-.35-.14-.42-.23c-.07-.1-.07-.21,0-.32l5.96-16.64c.18-.62.33-1.21.47-1.76.14-.55.21-1.08.21-1.61,0-1.45-.5-2.58-1.5-3.41-1-.83-2.72-1.25-5.14-1.25-2,0-4.04.32-6.12.97-2.07.64-4.03,1.54-5.88,2.68s-3.48,2.5-4.9,4.09-2.47,3.31-3.14,5.19l-4.22,11.75c-.07.12-.17.22-.29.32-.12.1-.32.18-.58.23s-.61.11-1.03.15-.93.06-1.53.06-1.09-.02-1.48-.06c-.39-.04-.69-.09-.9-.15s-.35-.14-.42-.23c-.07-.1-.09-.21-.05-.32l5.96-16.64c.28-.64.47-1.27.55-1.89.09-.62.13-1.18.13-1.68,0-1.37-.51-2.45-1.53-3.25-1.02-.8-2.73-1.2-5.12-1.2-2,0-4.04.32-6.12.97-2.07.64-4.03,1.54-5.88,2.68s-3.48,2.5-4.9,4.09-2.47,3.31-3.14,5.19l-4.17,11.75c-.07.12-.17.22-.29.32-.12.1-.32.18-.58.23s-.61.11-1.03.15-.93.06-1.53.06c-.63,0-1.14-.02-1.53-.06-.39-.04-.69-.09-.9-.15s-.35-.14-.42-.23c-.07-.1-.07-.21,0-.32l9.6-26.51c.03-.12.11-.22.24-.32.12-.1.31-.18.55-.25.25-.07.56-.12.95-.15.39-.03.84-.04,1.37-.04s.97.01,1.32.04c.35.03.62.08.82.15.19.07.32.15.37.25.05.1.06.21.03.32l-1.95,5.42c.46-.64,1.28-1.35,2.48-2.11,1.19-.76,2.61-1.47,4.25-2.12,1.63-.65,3.44-1.2,5.41-1.63,1.97-.43,3.96-.64,5.96-.64,2.18,0,4.02.16,5.54.48,1.51.32,2.75.77,3.72,1.35.97.58,1.67,1.26,2.11,2.05.44.79.69,1.67.76,2.62.63-.66,1.56-1.38,2.79-2.14,1.23-.76,2.66-1.46,4.3-2.11s3.42-1.18,5.35-1.61c1.93-.43,3.9-.64,5.91-.64,2.28,0,4.2.18,5.75.54,1.55.36,2.79.85,3.74,1.48.95.63,1.63,1.36,2.03,2.2.4.84.61,1.75.61,2.72,0,.68-.06,1.35-.18,2.01-.12.66-.31,1.32-.55,2.01l-6.01,16.64Z" fill="#c90"/><path d="m479.61,75.68c0,1.31-.55,2.49-1.66,3.53-1.11,1.04-2.86,1.94-5.25,2.68-2.39.74-5.45,1.31-9.18,1.71-3.73.4-8.21.6-13.45.6h-6.06c-.25.74-.42,1.46-.53,2.17s-.16,1.36-.16,1.96c0,2.15.94,3.81,2.82,4.98,1.88,1.17,4.95,1.76,9.2,1.76,2.21,0,4.2-.09,5.96-.28,1.76-.19,3.28-.38,4.56-.6,1.28-.21,2.32-.41,3.11-.6.79-.19,1.33-.28,1.61-.28s.48.06.61.19c.12.13.18.29.18.48,0,.12-.03.27-.08.45-.05.19-.13.38-.24.59s-.25.41-.42.62c-.18.21-.39.38-.63.51-.42.23-1.15.46-2.19.69-1.04.22-2.26.42-3.67.6-1.41.18-2.94.32-4.59.44-1.65.12-3.29.18-4.9.18-3.02,0-5.66-.2-7.91-.6-2.25-.4-4.12-1-5.62-1.8-1.49-.8-2.61-1.8-3.35-3s-1.11-2.6-1.11-4.2c0-1.25.22-2.59.66-4.03.44-1.44,1.12-2.86,2.06-4.28.93-1.42,2.14-2.77,3.61-4.07,1.48-1.3,3.23-2.44,5.27-3.43,2.04-.99,4.39-1.78,7.07-2.37,2.67-.6,5.68-.89,9.02-.89,2.78,0,5.13.2,7.07.6,1.93.4,3.51.91,4.72,1.52s2.09,1.29,2.64,2.04c.54.74.82,1.46.82,2.14Zm-6.64.38c0-1.11-.79-2.01-2.37-2.68s-3.81-1.01-6.7-1.01c-2.53,0-4.79.25-6.78.73-1.99.49-3.74,1.14-5.25,1.96-1.51.82-2.8,1.77-3.88,2.86-1.07,1.08-1.94,2.22-2.61,3.41h5.85c4.22,0,7.72-.14,10.49-.42,2.78-.28,5-.67,6.67-1.16,1.67-.49,2.85-1.05,3.53-1.68.69-.63,1.03-1.3,1.03-2.01Z" fill="#c90"/><path d="m531.02,76.32c0,.68-.07,1.35-.21,2.01-.14.66-.33,1.32-.58,2.01l-5.96,16.64c-.07.12-.17.22-.29.32-.12.1-.32.18-.58.23s-.6.11-1,.15c-.4.04-.92.06-1.56.06-.6,0-1.09-.02-1.48-.06-.39-.04-.69-.09-.9-.15s-.35-.14-.42-.23c-.07-.1-.09-.21-.05-.32l6.01-16.64c.25-.68.42-1.33.53-1.93.11-.6.16-1.13.16-1.58,0-1.37-.53-2.46-1.58-3.28s-2.81-1.23-5.27-1.23c-2.11,0-4.24.32-6.38.97-2.15.64-4.14,1.54-5.99,2.68s-3.49,2.5-4.93,4.09c-1.44,1.58-2.5,3.31-3.16,5.19l-4.17,11.75c-.07.12-.17.22-.29.32-.12.1-.32.18-.58.23s-.61.11-1.03.15-.93.06-1.53.06c-.63,0-1.14-.02-1.53-.06-.39-.04-.69-.09-.9-.15s-.35-.14-.42-.23c-.07-.1-.07-.21,0-.32l9.6-26.51c.03-.12.11-.22.24-.32.12-.1.31-.18.55-.25.25-.07.56-.12.95-.15.39-.03.84-.04,1.37-.04s.97.01,1.32.04c.35.03.62.08.82.15.19.07.32.15.37.25.05.1.06.21.03.32l-1.95,5.42c.46-.64,1.27-1.35,2.45-2.11,1.18-.76,2.6-1.47,4.27-2.12,1.67-.65,3.52-1.2,5.56-1.63,2.04-.43,4.17-.64,6.38-.64s4.2.2,5.75.59c1.55.39,2.79.91,3.74,1.55s1.63,1.38,2.03,2.21c.4.83.61,1.7.61,2.59Z" fill="#c90"/><path d="m573,70.78c0,.16-.02.31-.05.47-.04.16-.1.31-.18.45-.09.15-.2.29-.34.42-.14.14-.29.25-.45.35-.16.1-.34.18-.55.23s-.44.09-.69.09h-13.18l-5.8,16.03c-.14.45-.27.96-.4,1.54-.12.58-.18,1.05-.18,1.42,0,1.11.4,1.93,1.19,2.45.79.52,2.12.78,3.98.78.98,0,1.85-.05,2.61-.15.76-.1,1.41-.21,1.98-.32.56-.12,1.05-.22,1.45-.32.4-.1.75-.15,1.03-.15s.5.05.66.15c.16.1.24.27.24.53,0,.2-.04.4-.11.62-.07.22-.16.42-.26.63s-.24.39-.4.56c-.16.17-.34.31-.55.42-.25.14-.63.26-1.16.38s-1.13.22-1.82.32-1.4.18-2.14.23-1.44.09-2.11.09c-1.9,0-3.53-.11-4.9-.34-1.37-.22-2.51-.58-3.43-1.05-.91-.48-1.59-1.08-2.03-1.8-.44-.72-.66-1.58-.66-2.58,0-.23.02-.49.05-.78.03-.28.1-.58.18-.88.09-.3.18-.61.26-.92.09-.31.18-.6.29-.88l5.75-15.97h-7.12c-.35,0-.62-.05-.82-.16-.19-.11-.29-.33-.29-.66,0-.25.03-.51.11-.76.07-.25.19-.48.37-.69.18-.21.4-.37.69-.5.28-.13.61-.19,1-.19h7.12l2.37-6.5c.03-.12.12-.22.26-.32.14-.1.34-.18.61-.25.26-.07.6-.12,1-.15.4-.03.92-.04,1.56-.04.6,0,1.09.01,1.48.04.39.03.69.08.9.15.21.07.34.15.4.25.05.1.06.21.03.32l-2.32,6.5h13.18c.49,0,.82.11.98.32.16.22.24.42.24.62Z" fill="#c90"/><path d="m618.19,75.68c0,1.31-.55,2.49-1.66,3.53-1.11,1.04-2.86,1.94-5.25,2.68-2.39.74-5.45,1.31-9.18,1.71-3.73.4-8.21.6-13.45.6h-6.06c-.25.74-.42,1.46-.53,2.17s-.16,1.36-.16,1.96c0,2.15.94,3.81,2.82,4.98,1.88,1.17,4.95,1.76,9.2,1.76,2.21,0,4.2-.09,5.96-.28,1.76-.19,3.28-.38,4.56-.6,1.28-.21,2.32-.41,3.11-.6.79-.19,1.33-.28,1.61-.28s.48.06.61.19c.12.13.18.29.18.48,0,.12-.03.27-.08.45-.05.19-.13.38-.24.59s-.25.41-.42.62c-.18.21-.39.38-.63.51-.42.23-1.15.46-2.19.69-1.04.22-2.26.42-3.67.6-1.41.18-2.94.32-4.59.44-1.65.12-3.29.18-4.9.18-3.02,0-5.66-.2-7.91-.6-2.25-.4-4.12-1-5.62-1.8-1.49-.8-2.61-1.8-3.35-3s-1.11-2.6-1.11-4.2c0-1.25.22-2.59.66-4.03.44-1.44,1.12-2.86,2.06-4.28.93-1.42,2.14-2.77,3.61-4.07,1.48-1.3,3.23-2.44,5.27-3.43,2.04-.99,4.39-1.78,7.07-2.37,2.67-.6,5.68-.89,9.02-.89,2.78,0,5.13.2,7.07.6,1.93.4,3.51.91,4.72,1.52s2.09,1.29,2.64,2.04c.54.74.82,1.46.82,2.14Zm-6.64.38c0-1.11-.79-2.01-2.37-2.68s-3.81-1.01-6.7-1.01c-2.53,0-4.79.25-6.78.73-1.99.49-3.74,1.14-5.25,1.96-1.51.82-2.8,1.77-3.88,2.86-1.07,1.08-1.94,2.22-2.61,3.41h5.85c4.22,0,7.72-.14,10.49-.42,2.78-.28,5-.67,6.67-1.16,1.67-.49,2.85-1.05,3.53-1.68.69-.63,1.03-1.3,1.03-2.01Z" fill="#c90"/></svg>